<?xml version="1.0" standalone="no"?>
<!DOCTYPE svg PUBLIC "-//W3C//DTD SVG 20010904//EN"
 "http://www.w3.org/TR/2001/REC-SVG-20010904/DTD/svg10.dtd">
<svg version="1.0" xmlns="http://www.w3.org/2000/svg"
 width="96.000000pt" height="96.000000pt" viewBox="0 0 96.000000 96.000000"
 preserveAspectRatio="xMidYMid meet">

<g transform="translate(0.000000,96.000000) scale(0.100000,-0.100000)"
fill="#000000" stroke="none">
<path d="M0 480 l0 -480 480 0 480 0 0 480 0 480 -480 0 -480 0 0 -480z m557
345 c76 -32 116 -97 116 -186 -1 -65 -17 -100 -78 -169 -66 -74 -77 -136 -38
-212 17 -35 81 -68 129 -68 53 0 104 53 104 107 0 29 -7 46 -24 62 -41 39
-111 13 -92 -34 4 -13 10 -14 19 -7 8 7 18 7 27 2 11 -7 12 -14 2 -34 -17 -37
-72 -37 -101 0 -25 32 -26 55 -6 98 31 65 113 85 176 43 63 -42 85 -120 54
-194 -21 -50 -42 -72 -90 -94 -111 -51 -241 14 -279 140 -34 114 -71 153 -154
158 -67 4 -97 -9 -129 -56 -32 -47 -30 -101 3 -141 24 -28 32 -31 73 -28 39 3
48 7 59 30 10 21 10 33 2 48 -13 23 -45 23 -45 0 0 -25 -34 -24 -44 2 -17 45
12 78 68 78 60 -1 91 -39 91 -109 0 -33 -7 -49 -34 -79 -33 -35 -37 -37 -99
-37 -50 0 -72 5 -94 21 -38 27 -73 99 -73 149 1 89 81 180 169 192 24 3 73 0
111 -7 84 -16 131 -8 175 31 89 79 57 221 -54 236 -48 7 -87 -14 -102 -55 -19
-49 28 -106 66 -78 15 11 16 15 4 35 -12 18 -12 23 1 31 21 14 28 12 50 -10
27 -27 25 -62 -6 -99 -21 -25 -33 -31 -65 -31 -137 0 -165 193 -39 258 52 26
96 28 147 7z"/>
</g>
</svg>
